<svg width="40" height="40" viewBox="0 0 40 40" fill="none" xmlns="http://www.w3.org/2000/svg">
<path d="M36.7143 16.8571C36.7143 16.1751 36.4434 15.5211 35.9611 15.0388C35.4789 14.5566 34.8248 14.2857 34.1429 14.2857H29L25.1429 9.14282H14.8571L11 14.2857H5.85714C5.17516 14.2857 4.5211 14.5566 4.03887 15.0388C3.55663 15.5211 3.28571 16.1751 3.28571 16.8571V32.2857C3.28571 32.9677 3.55663 33.6217 4.03887 34.104C4.5211 34.5862 5.17516 34.8571 5.85714 34.8571H34.1429C34.8248 34.8571 35.4789 34.5862 35.9611 34.104C36.4434 33.6217 36.7143 32.9677 36.7143 32.2857V16.8571Z" stroke="#000001" stroke-width="2" stroke-linecap="round" stroke-linejoin="round"/>
<path d="M20 29.0714C23.1954 29.0714 25.7857 26.4811 25.7857 23.2857C25.7857 20.0904 23.1954 17.5 20 17.5C16.8046 17.5 14.2143 20.0904 14.2143 23.2857C14.2143 26.4811 16.8046 29.0714 20 29.0714Z" stroke="#000001" stroke-width="2" stroke-linecap="round" stroke-linejoin="round"/>
</svg>
