<svg width="40" height="40" viewBox="0 0 40 40" fill="none" xmlns="http://www.w3.org/2000/svg">
<path d="M30 22.8571C30.0067 21.0741 29.5365 19.3216 28.6381 17.7814C27.7397 16.2412 26.4459 14.9692 24.8906 14.0972C23.3353 13.2251 21.5751 12.7848 19.7924 12.8219C18.0097 12.8589 16.2693 13.3719 14.7516 14.3077C13.2338 15.2436 11.9939 16.5682 11.1603 18.1444C10.3266 19.7206 9.92961 21.4911 10.0103 23.2723C10.091 25.0536 10.6465 26.7809 11.6193 28.2752C12.5921 29.7696 13.9467 30.9767 15.5429 31.7714V36.6857C15.5503 36.9763 15.671 37.2524 15.8792 37.4552C16.0873 37.658 16.3665 37.7715 16.6571 37.7714H23.3429C23.6335 37.7715 23.9127 37.658 24.1208 37.4552C24.329 37.2524 24.4497 36.9763 24.4571 36.6857V31.6857C26.1035 30.8661 27.492 29.6084 28.4699 28.0508C29.4479 26.4932 29.9773 24.6961 30 22.8571V22.8571Z" stroke="#000001" stroke-linecap="round" stroke-linejoin="round"/>
<path d="M20 2.31433V6.60005" stroke="#000001" stroke-linecap="round" stroke-linejoin="round"/>
<path d="M31.4286 6.40002L28.4 9.45717" stroke="#000001" stroke-linecap="round" stroke-linejoin="round"/>
<path d="M37.9429 15.2572H33.6571" stroke="#000001" stroke-linecap="round" stroke-linejoin="round"/>
<path d="M8.57143 6.40002L11.6 9.45717" stroke="#000001" stroke-linecap="round" stroke-linejoin="round"/>
<path d="M2.05714 15.2572H6.34286" stroke="#000001" stroke-linecap="round" stroke-linejoin="round"/>
</svg>
