<svg width="54" height="54" viewBox="0 0 54 54" fill="none" xmlns="http://www.w3.org/2000/svg">
<path d="M31.082 31.4234C29.8842 32.5321 28.2599 33.1549 26.5663 33.1549C24.8727 33.1549 23.2484 32.5321 22.0506 31.4234M21.776 24.2851H21.7919M31.3566 24.2851H31.3726M40.9372 27.2422C40.9372 28.9896 40.5655 30.7199 39.8433 32.3344C39.1211 33.9488 38.0626 35.4157 36.7281 36.6513C35.3936 37.887 33.8094 38.8671 32.0658 39.5359C30.3222 40.2046 28.4535 40.5488 26.5663 40.5488C24.6791 40.5488 22.8103 40.2046 21.0667 39.5359C19.3232 38.8671 17.7389 37.887 16.4045 36.6513C15.07 35.4157 14.0114 33.9488 13.2892 32.3344C12.567 30.7199 12.1953 28.9896 12.1953 27.2422C12.1953 23.713 13.7094 20.3284 16.4045 17.833C19.0996 15.3375 22.7549 13.9355 26.5663 13.9355C30.3777 13.9355 34.033 15.3375 36.7281 17.833C39.4232 20.3284 40.9372 23.713 40.9372 27.2422Z" stroke="#C66464" stroke-width="3" stroke-linecap="round" stroke-linejoin="round"/>
<circle cx="27" cy="27" r="27" fill="#FFD6D6" fill-opacity="0.5"/>
</svg>
