<svg width="547" height="664" viewBox="0 0 547 664" fill="none" xmlns="http://www.w3.org/2000/svg">
<g filter="url(#filter0_d_1137_1658)">
<path d="M127.926 13.132C143.975 22.7612 180.43 75.242 193.505 123.872C222.881 117.538 256.911 114.101 296.216 114.101C316.282 114.101 334.235 115.092 350.383 117.146C364.819 70.5075 398.703 22.3186 414.013 13.1321C477.442 -24.9256 510.988 158.161 500.569 249.819C510.953 278.057 520.728 311.199 531.812 349.699C552.252 420.695 514.984 577.931 443.101 577.931C415.085 603.688 387.47 615.336 361.364 618.217C360.87 618.977 360.288 619.752 359.615 620.542C312.744 675.527 205.871 651.322 168.618 611.289C147.881 606.097 128.874 595.246 116.688 577.931C-6.69597 534.811 -6.69594 383.355 35.0848 253.25C36.6626 248.337 38.4166 243.502 40.3571 238.754C33.6013 144.285 66.9588 -23.4489 127.926 13.132Z" fill="white"/>
<path d="M194.579 122.109C187.901 98.0361 175.671 73.1859 163.103 53.0816C156.696 42.833 150.186 33.7928 144.256 26.6969C138.355 19.6372 132.936 14.3884 128.698 11.8458C120.821 7.11957 113.261 5.62532 106.104 6.97528C98.9738 8.32017 92.4316 12.4521 86.4918 18.6284C74.6471 30.9448 64.8889 51.7111 57.3117 76.3586C42.1764 125.591 35.5032 191.127 38.8362 238.512C36.933 243.192 35.2098 247.955 33.6567 252.792C12.7256 317.971 2.21498 388.621 12.4712 448.463C22.7145 508.23 53.7123 557.325 115.741 579.188C128.108 596.52 147.157 607.378 167.824 612.635C186.848 632.837 223.069 648.851 260.342 653.038C297.82 657.247 336.863 649.545 360.757 621.515C361.295 620.883 361.783 620.255 362.221 619.63C388.338 616.597 415.855 604.878 443.688 579.428C462.014 579.216 478.005 569.096 491.312 553.217C504.76 537.17 515.595 515.104 523.503 490.904C539.307 442.549 543.584 385.167 533.254 349.284C522.215 310.941 512.459 277.858 502.099 249.635C507.263 203.597 501.45 134.93 486.426 82.4196C478.902 56.1229 469.013 33.6711 456.878 20.1669C450.796 13.3987 444.065 8.78385 436.695 7.15161C429.29 5.51151 421.439 6.92741 413.242 11.8459C409.196 14.2736 404.078 19.1641 398.499 25.7301C392.892 32.3291 386.731 40.7276 380.607 50.2853C368.573 69.0682 356.631 92.4127 349.326 115.502C333.426 113.544 315.816 112.601 296.216 112.601C257.443 112.601 223.758 115.938 194.579 122.109Z" stroke="white" stroke-width="3"/>
</g>
<path d="M195.268 130.932C184.049 80.447 144.782 23.2323 127.954 13.1352C60.6403 -27.2534 26.9836 181.419 43.8118 265.561L195.268 130.932Z" fill="#FFC1C1"/>
<path d="M346.72 130.931C357.939 80.4455 397.205 23.2307 414.034 13.1336C481.347 -27.255 515.005 181.418 498.177 265.56L346.72 130.931Z" fill="#FFC1C1"/>
<path d="M164.337 606.227C196.882 649.178 310.788 677.812 359.605 620.544C398.659 574.729 131.793 577.593 164.337 606.227Z" fill="#D5CDC0"/>
<path d="M35.0848 253.25C60.7415 173.355 133.01 114.102 296.216 114.102C459.422 114.102 482.85 179.628 531.812 349.699C552.252 420.695 514.984 577.931 443.101 577.931C375.831 639.775 310.877 620.279 263.574 593.392C230.932 624.314 149.33 624.314 116.688 577.931C-6.69596 534.811 -6.69594 383.356 35.0848 253.25Z" fill="#F8F1E5"/>
<path d="M262.56 568.473C233.104 569.368 203.768 569.117 195.246 517.986C187.845 473.576 225.178 467.125 262.56 467.501C300.425 467.882 338.342 475.647 329.874 517.987C320.126 566.724 291.432 567.596 262.799 568.465L262.56 568.473Z" fill="#444444"/>
<circle cx="127.918" cy="349.702" r="33.6568" fill="#444444"/>
<circle cx="397.18" cy="349.702" r="33.6568" fill="#444444"/>
<defs>
<filter id="filter0_d_1137_1658" x="0.822659" y="0.881285" width="545.734" height="662.965" filterUnits="userSpaceOnUse" color-interpolation-filters="sRGB">
<feFlood flood-opacity="0" result="BackgroundImageFix"/>
<feColorMatrix in="SourceAlpha" type="matrix" values="0 0 0 0 0 0 0 0 0 0 0 0 0 0 0 0 0 0 127 0" result="hardAlpha"/>
<feOffset dy="2.05911"/>
<feGaussianBlur stdDeviation="3.08867"/>
<feColorMatrix type="matrix" values="0 0 0 0 0 0 0 0 0 0 0 0 0 0 0 0 0 0 0.35 0"/>
<feBlend mode="normal" in2="BackgroundImageFix" result="effect1_dropShadow_1137_1658"/>
<feBlend mode="normal" in="SourceGraphic" in2="effect1_dropShadow_1137_1658" result="shape"/>
</filter>
</defs>
</svg>
