<svg width="612" height="663" viewBox="0 0 612 663" fill="none" xmlns="http://www.w3.org/2000/svg">
<circle cx="401.295" cy="203.822" r="18.736" fill="white"/>
<circle cx="211.47" cy="203.822" r="18.736" fill="white"/>
<path fill-rule="evenodd" clip-rule="evenodd" d="M444.151 327.203C444.151 385.124 382.434 432.078 306.302 432.078C230.17 432.078 168.453 385.124 168.453 327.203C168.453 269.282 230.17 222.328 306.302 222.328C382.434 222.328 444.151 269.282 444.151 327.203ZM308.826 287.925C322.024 287.102 332.333 280.071 332.333 271.519C332.333 262.413 320.646 255.032 306.229 255.032C291.812 255.032 280.124 262.413 280.124 271.519C280.124 280.125 290.564 287.19 303.881 287.94L301.682 359.985H311.025L308.826 287.925Z" fill="white"/>
<path d="M451.202 77.0798C468.705 -44.4574 642.999 66.7258 523.927 131.562C667.306 319.907 551.291 526.743 475.361 606.618L484.976 506.529C273.555 664.108 -136.023 446.623 82.6456 131.069C-19.1697 46.7581 134.909 -35.0903 162.273 71.9029C266.8 19.8367 395.24 46.2641 451.202 77.0798Z" stroke="white" stroke-width="40"/>
</svg>
