<svg width="539" height="675" viewBox="0 0 539 675" fill="none" xmlns="http://www.w3.org/2000/svg">
<g filter="url(#filter0_d_1137_1460)">
<path d="M34.8762 231.46C23.5646 112.968 19.4964 -14.9103 70.1798 11.5012C124.481 63.4867 146.911 96.9064 160.917 133.719C166.636 132.221 171.953 131.427 176.724 131.427C192.905 131.428 210.817 129.468 229.776 127.393C271.221 122.858 317.668 117.776 361.973 131.427C368.071 131.427 376.679 134.941 386.806 140.977C405.058 110.023 422.036 87.7139 445.451 56.9472C453.751 46.0413 462.861 34.0707 473.122 20.2775C520.638 -35.7453 528.162 118.807 512.188 262.548C522.401 277.327 528.697 289.987 528.697 298.151C528.697 306.778 528.778 315.179 528.858 323.401C529.628 402.875 530.236 465.564 455.526 552.865C411.996 598.248 339.341 663.088 282.318 663.088C235.079 663.088 146.159 589.915 109.11 552.865C50.5289 494.284 10 427.825 10 298.151C10 276.576 19.7629 253.432 34.8762 231.46Z" fill="white"/>
<path d="M71.2171 10.4177L71.0626 10.2698L70.873 10.171C64.331 6.76188 58.4649 5.73573 53.2773 7.05586C48.0844 8.37735 43.8511 11.9786 40.4325 17.2481C33.6469 27.7075 29.74 45.2465 27.7859 67.0075C23.8796 110.508 27.7039 171.982 33.3313 231.06C18.3081 253.023 8.5 276.298 8.5 298.151C8.5 363.147 18.658 412.392 36.2114 452.766C53.7655 493.141 78.6766 524.553 108.049 553.925C126.63 572.507 158.19 600.12 191.033 623.099C207.456 634.589 224.231 644.943 239.888 652.429C255.514 659.9 270.172 664.588 282.318 664.588C311.323 664.588 344.069 648.135 374.852 626.217C405.692 604.258 434.811 576.628 456.609 553.903L456.638 553.872L456.666 553.84C494.148 510.041 512.798 472.339 521.953 435.56C531.09 398.855 530.743 363.151 530.359 323.484L530.358 323.387C530.278 315.164 530.197 306.769 530.197 298.151C530.197 293.735 528.51 288.288 525.628 282.189C522.791 276.185 518.729 269.412 513.74 262.157C521.683 190.405 523.781 115.961 517.953 66.3266C516.492 53.8796 514.528 42.9565 512.02 34.0088C509.52 25.0895 506.444 18.0057 502.686 13.3429C498.886 8.62677 494.25 6.25046 488.831 7.2313C483.589 8.18032 477.988 12.2224 471.979 19.3073L471.948 19.3438L471.919 19.3822C461.663 33.168 452.558 45.1326 444.257 56.0387L444.235 56.0685C421.161 86.387 404.286 108.56 386.277 138.924C376.791 133.401 368.442 130.011 362.203 129.929C317.665 116.267 271.041 121.369 229.745 125.888L229.613 125.902C210.633 127.979 192.807 129.928 176.724 129.927C172.163 129.927 167.161 130.628 161.84 131.937C147.693 95.3326 124.998 61.905 71.2171 10.4177Z" stroke="white" stroke-width="3"/>
</g>
<path d="M473.095 20.2805C522.5 -37.97 528.67 131.435 510.144 279.633L361.945 187.004C398.995 112.905 421.452 89.7002 473.095 20.2805Z" fill="#403937"/>
<path d="M471.267 80.48C502.759 48.9893 487.013 143.465 487.013 253.689L392.535 190.702C419.745 134.338 449.163 102.583 471.267 80.48Z" fill="#E8DED2"/>
<path d="M70.1711 11.5049C8.88482 -20.4319 27.6541 173.228 42.4826 303.098L176.715 187.005C160.576 123.048 148.713 86.697 70.1711 11.5049Z" fill="#403937"/>
<path d="M77.6387 64.7358C46.6336 33.7355 54.2575 167.315 61.8924 253.691L137.073 154.912C124.877 127.721 93.3852 80.4798 77.6387 64.7358Z" fill="#E8DED2"/>
<path d="M282.318 663.09C235.079 663.09 146.159 589.916 109.11 552.867C50.5289 494.286 10 427.827 10 298.152C10 224.053 125.17 131.428 176.724 131.429C228.278 131.43 297.4 111.533 361.973 131.429C399.022 131.429 528.697 261.103 528.697 298.152C528.697 390.17 537.965 456.534 455.526 552.867C411.996 598.25 339.341 663.09 282.318 663.09Z" fill="#45434F"/>
<circle cx="156.321" cy="316.681" r="31.4924" fill="#111111"/>
<path d="M131.513 250.746C124.172 266.514 135.387 269.919 148.364 275.961C161.341 282.003 194.662 299.333 202.004 283.565C209.345 267.798 200.811 243.983 187.834 237.941C174.857 231.899 138.854 234.979 131.513 250.746Z" fill="#E8DED2"/>
<path d="M397.57 250.745C404.911 266.512 393.696 269.918 380.719 275.959C367.742 282.001 334.421 299.332 327.079 283.564C319.738 267.796 332.302 243.984 345.279 237.942C358.256 231.9 390.229 234.977 397.57 250.745Z" fill="#E8DED2"/>
<circle cx="376.77" cy="316.678" r="29.9924" fill="#111111" stroke="#111111" stroke-width="3"/>
<path d="M124.834 537.121C161.883 574.276 235.058 631.599 282.297 631.599C332.817 631.599 391.123 585.895 439.758 537.121C480.769 495.993 486.997 458.39 502.744 426.898C502.744 426.898 516.399 367.905 486.997 363.911C439.407 357.446 455.505 411.151 376.774 411.151C337.918 411.152 361.028 332.42 266.55 332.42C203.565 332.42 207.008 411.151 156.327 411.151C93.3412 411.151 124.834 363.913 61.8491 363.913C41.5594 363.913 46.1027 411.151 46.1027 411.151C66.4405 465.91 87.2425 499.423 124.834 537.121Z" fill="#E8DED2"/>
<path d="M219.305 521.374C196.214 508.561 140.574 442.642 172.066 442.642C203.558 442.642 197.272 458.387 219.304 458.388C246.857 458.389 245.877 446.829 282.289 446.928C307.537 446.996 304.465 458.388 329.529 458.388C338.691 458.388 357.511 440.121 376.767 442.642C399.405 445.606 376.767 489.883 329.528 521.374C282.289 552.866 276.054 552.866 219.305 521.374Z" fill="#111111"/>
<path d="M219.34 584.359C219.34 552.639 243.082 517.941 232.826 494.028C231.032 489.846 232.462 484.323 236.802 482.955C274.414 471.103 290.565 471.197 316.475 483.24C319.601 484.693 320.8 488.441 319.93 491.777C312.431 520.543 345.31 556.682 345.31 584.359C345.31 610.703 345.31 615.852 315.15 636.941C296.883 649.715 272.069 647.907 250.676 636.941C221.381 621.924 219.34 602.337 219.34 584.359Z" fill="#B85156"/>
<path d="M274.914 348.166C349.014 348.166 349.014 440.791 274.914 440.791C200.815 440.791 200.815 348.166 274.914 348.166Z" fill="#111111"/>
<defs>
<filter id="filter0_d_1137_1460" x="0.822659" y="0.881041" width="537.362" height="673.444" filterUnits="userSpaceOnUse" color-interpolation-filters="sRGB">
<feFlood flood-opacity="0" result="BackgroundImageFix"/>
<feColorMatrix in="SourceAlpha" type="matrix" values="0 0 0 0 0 0 0 0 0 0 0 0 0 0 0 0 0 0 127 0" result="hardAlpha"/>
<feOffset dy="2.05911"/>
<feGaussianBlur stdDeviation="3.08867"/>
<feColorMatrix type="matrix" values="0 0 0 0 0 0 0 0 0 0 0 0 0 0 0 0 0 0 0.35 0"/>
<feBlend mode="normal" in2="BackgroundImageFix" result="effect1_dropShadow_1137_1460"/>
<feBlend mode="normal" in="SourceGraphic" in2="effect1_dropShadow_1137_1460" result="shape"/>
</filter>
</defs>
</svg>
