<svg width="36" height="28" viewBox="0 0 36 28" fill="none" xmlns="http://www.w3.org/2000/svg">
<path d="M34.7143 8.85711C34.7143 8.17512 34.4434 7.52107 33.9611 7.03883C33.4789 6.5566 32.8248 6.28568 32.1429 6.28568H27L23.1429 1.14282H12.8571L9 6.28568H3.85714C3.17516 6.28568 2.5211 6.5566 2.03887 7.03883C1.55663 7.52107 1.28571 8.17512 1.28571 8.85711V24.2857C1.28571 24.9677 1.55663 25.6217 2.03887 26.104C2.5211 26.5862 3.17516 26.8571 3.85714 26.8571H32.1429C32.8248 26.8571 33.4789 26.5862 33.9611 26.104C34.4434 25.6217 34.7143 24.9677 34.7143 24.2857V8.85711Z" stroke="#000001" stroke-linecap="round" stroke-linejoin="round"/>
<path d="M18 21.0714C21.1954 21.0714 23.7857 18.4811 23.7857 15.2857C23.7857 12.0904 21.1954 9.5 18 9.5C14.8046 9.5 12.2143 12.0904 12.2143 15.2857C12.2143 18.4811 14.8046 21.0714 18 21.0714Z" stroke="#000001" stroke-linecap="round" stroke-linejoin="round"/>
</svg>
