<svg width="28" height="28" viewBox="0 0 28 28" fill="none" xmlns="http://www.w3.org/2000/svg">
<g clip-path="url(#clip0_31_436)" filter="url(#filter0_d_31_436)">
<path d="M24 10C24 4.47715 19.5229 0 14 0C8.47715 0 4 4.47715 4 10C4 14.9912 7.65684 19.1283 12.4375 19.8785V12.8906H9.89844V10H12.4375V7.79688C12.4375 5.29063 13.9305 3.90625 16.2146 3.90625C17.3084 3.90625 18.4531 4.10156 18.4531 4.10156V6.5625H17.1922C15.95 6.5625 15.5625 7.3334 15.5625 8.125V10H18.3359L17.8926 12.8906H15.5625V19.8785C20.3432 19.1283 24 14.9912 24 10Z" fill="black"/>
</g>
<defs>
<filter id="filter0_d_31_436" x="0" y="0" width="28" height="28" filterUnits="userSpaceOnUse" color-interpolation-filters="sRGB">
<feFlood flood-opacity="0" result="BackgroundImageFix"/>
<feColorMatrix in="SourceAlpha" type="matrix" values="0 0 0 0 0 0 0 0 0 0 0 0 0 0 0 0 0 0 127 0" result="hardAlpha"/>
<feOffset dy="4"/>
<feGaussianBlur stdDeviation="2"/>
<feComposite in2="hardAlpha" operator="out"/>
<feColorMatrix type="matrix" values="0 0 0 0 0 0 0 0 0 0 0 0 0 0 0 0 0 0 0.25 0"/>
<feBlend mode="normal" in2="BackgroundImageFix" result="effect1_dropShadow_31_436"/>
<feBlend mode="normal" in="SourceGraphic" in2="effect1_dropShadow_31_436" result="shape"/>
</filter>
<clipPath id="clip0_31_436">
<rect width="20" height="20" fill="white" transform="translate(4)"/>
</clipPath>
</defs>
</svg>
