<svg width="37" height="36" viewBox="0 0 37 36" fill="none" xmlns="http://www.w3.org/2000/svg">
<path d="M27.7269 20.6489C27.7333 18.9434 27.2835 17.2672 26.4243 15.794C25.565 14.3208 24.3274 13.1041 22.8398 12.2701C21.3522 11.436 19.6686 11.0149 17.9635 11.0503C16.2584 11.0857 14.5937 11.5764 13.142 12.4715C11.6903 13.3666 10.5044 14.6336 9.70701 16.1412C8.90965 17.6489 8.52989 19.3423 8.60709 21.046C8.68428 22.7497 9.21562 24.4018 10.1461 25.8312C11.0765 27.2605 12.3722 28.4151 13.8989 29.1752V33.8757C13.906 34.1536 14.0214 34.4177 14.2205 34.6117C14.4196 34.8057 14.6867 34.9142 14.9647 34.9141H21.3594C21.6374 34.9142 21.9045 34.8057 22.1036 34.6117C22.3027 34.4177 22.4181 34.1536 22.4252 33.8757V29.0933C24 28.3093 25.3281 27.1063 26.2634 25.6165C27.1988 24.1267 27.7052 22.4078 27.7269 20.6489V20.6489Z" stroke="#000001" stroke-width="2" stroke-linecap="round" stroke-linejoin="round"/>
<path d="M18.1621 1V5.09922" stroke="#000001" stroke-width="2" stroke-linecap="round" stroke-linejoin="round"/>
<path d="M29.0933 4.90796L26.1965 7.83207" stroke="#000001" stroke-width="2" stroke-linecap="round" stroke-linejoin="round"/>
<path d="M35.3241 13.3796H31.2249" stroke="#000001" stroke-width="2" stroke-linecap="round" stroke-linejoin="round"/>
<path d="M7.23081 4.90796L10.1276 7.83207" stroke="#000001" stroke-width="2" stroke-linecap="round" stroke-linejoin="round"/>
<path d="M1 13.3796H5.09922" stroke="#000001" stroke-width="2" stroke-linecap="round" stroke-linejoin="round"/>
</svg>
